name analog
datacolumns 19
datarows 18
range 0.0 0.0085
endheader
time	ground_force_vx	ground_force_vy	ground_force_vz	ground_force_px	ground_force_py	ground_force_pz	l_ground_force_vx	l_ground_force_vy	l_ground_force_vz	l_ground_force_px	l_ground_force_py	l_ground_force_pz	ground_torque_x	ground_torque_y	ground_torque_z	l_ground_torque_x	l_ground_torque_y	l_ground_torque_z
0.0	-0.0	-0.0	-0.0	-2.4086837768554688	17.469074249267578	-207.6697998046875	2.8778107166290283	-12.748303413391112	-297.4355773925781	-0.0	-0.0	-0.0	-0.0	-0.0	-0.0	98584.90625	-18858.619140625	713.739501953125
0.0005	-0.0	-0.0	-0.0	-2.329911231994629	17.954561233520508	-210.84841918945312	2.7998337745666504	-12.599790573120115	-293.6793518066406	-0.0	-0.0	-0.0	-0.0	-0.0	-0.0	97517.640625	-18489.28515625	605.0833129882812
0.001	-0.0	-0.0	-0.0	-1.7360283136367798	18.519514083862305	-212.73439025878903	2.75003433227539	-12.660407066345217	-289.948486328125	-0.0	-0.0	-0.0	-0.0	-0.0	-0.0	96800.34375	-18020.341796875	459.4243774414063
0.0015	-0.0	-0.0	-0.0	-1.8319987058639529	19.173952102661133	-215.94790649414065	2.5532782077789307	-12.54167938232422	-287.3204345703125	-0.0	-0.0	-0.0	-0.0	-0.0	-0.0	95669.703125	-18051.9140625	416.5892028808594
0.002	-0.0	-0.0	-0.0	-1.9236438274383545	19.86485481262207	-217.8348388671875	2.375933885574341	-12.54167938232422	-284.0578308105469	-0.0	-0.0	-0.0	-0.0	-0.0	-0.0	94502.2109375	-17721.177734375	466.6893310546875
0.0025	-0.0	-0.0	-0.0	-1.3266583681106567	20.786794662475582	-219.5868682861328	2.433574914932251	-12.57989501953125	-280.9629821777344	-0.0	-0.0	-0.0	-0.0	-0.0	-0.0	93276.6015625	-17407.669921875	314.4285583496094
0.003	-0.0	-0.0	-0.0	-1.6133531332015991	21.15080070495605	-222.4566802978516	2.040348052978516	-12.453357696533203	-275.7545166015625	-0.0	-0.0	-0.0	-0.0	-0.0	-0.0	92020.84375	-16990.48046875	318.1990661621094
0.0035	-0.0	-0.0	-0.0	-1.3116031885147097	22.244047164916992	-228.2593688964844	2.173067569732666	-12.138021469116213	-271.9891357421875	-0.0	-0.0	-0.0	-0.0	-0.0	-0.0	90619.578125	-16551.857421875	295.10284423828125
0.004	-0.0	-0.0	-0.0	-1.280443787574768	23.35216522216797	-229.1376190185547	1.7742156982421875	-12.150552749633787	-269.34552001953125	-0.0	-0.0	-0.0	-0.0	-0.0	-0.0	89373.59375	-16204.7998046875	159.20468139648438
0.0045000000000000005	-0.0	-0.0	-0.0	-1.0387966632843018	23.63870048522949	-232.2928771972656	1.6795860528945925	-11.99290657043457	-264.7081604003906	-0.0	-0.0	-0.0	-0.0	-0.0	-0.0	88390.15625	-15745.728515625	74.48313903808594
0.005	-0.0	-0.0	-0.0	-0.9111997485160828	25.11569595336914	-235.84860229492188	1.2608115673065186	-11.848316192626951	-263.4389953613281	-0.0	-0.0	-0.0	-0.0	-0.0	-0.0	87362.9453125	-15361.9169921875	-48.82728576660156
0.0055	-0.0	-0.0	-0.0	-0.9813156127929688	26.052165985107425	-238.62257385253903	0.9893102645874025	-11.463096618652344	-260.6151123046875	-0.0	-0.0	-0.0	-0.0	-0.0	-0.0	86293.46875	-15144.884765625	-220.65591430664065
0.006	-0.0	-0.0	-0.0	-0.3680304288864136	26.687877655029297	-242.7847442626953	0.5509923696517944	-11.28653049468994	-255.7263946533203	-0.0	-0.0	-0.0	-0.0	-0.0	-0.0	85422.359375	-14784.3876953125	-292.8529663085937
0.006500000000000001	-0.0	-0.0	-0.0	-0.5027382969856262	27.527677536010746	-245.53485107421875	-0.1260353922843933	-11.161112785339355	-252.7123107910156	-0.0	-0.0	-0.0	-0.0	-0.0	-0.0	84294.7109375	-14390.951171875	-394.7975769042969
0.007	-0.0	-0.0	-0.0	-0.8168163895606995	28.329559326171875	-250.3851776123047	-0.0701211616396904	-11.110024452209473	-250.69085693359372	-0.0	-0.0	-0.0	-0.0	-0.0	-0.0	83352.421875	-14030.0703125	-507.1604919433594
0.0075	-0.0	-0.0	-0.0	-0.8028945922851562	29.05651092529297	-251.61265563964844	-0.2144802361726761	-10.650028228759766	-247.3451995849609	-0.0	-0.0	-0.0	-0.0	-0.0	-0.0	82452.671875	-13701.9814453125	-478.7984313964844
0.008	-0.0	-0.0	-0.0	-0.7093669176101685	30.13038825988769	-254.14144897460935	-0.425080269575119	-11.018177032470703	-244.90069580078125	-0.0	-0.0	-0.0	-0.0	-0.0	-0.0	81272.09375	-13365.1396484375	-691.55126953125
0.0085	-0.0	-0.0	-0.0	-0.6097748279571533	30.853803634643555	-256.8355712890625	-0.2109428793191909	-11.091900825500488	-241.1060791015625	-0.0	-0.0	-0.0	-0.0	-0.0	-0.0	80640.6171875	-13364.080078125	-672.9370727539062
